<?xml version="1.0" encoding="utf-8"?>
<!DOCTYPE svg PUBLIC "-//W3C//DTD SVG 1.1//EN" "http://www.w3.org/Graphics/SVG/1.1/DTD/svg11.dtd">
<svg version="1.1" id="Layer_1" xmlns="http://www.w3.org/2000/svg" xmlns:xlink="http://www.w3.org/1999/xlink" x="0px" y="0px"
	 width="100px" height="100px" viewBox="0 0 100 100" style="enable-background:new 0 0 100 100;" xml:space="preserve">
<path style="fill:#92C131;" d="M100,94c0,3.313-2.687,6-6,6H6c-3.313,0-6-2.687-6-6V6c0-3.313,2.687-6,6-6h88c3.313,0,6,2.687,6,6
	V94z"/>
<g>
	<path style="fill:#FFFFFF;" d="M53,14v26.253l8.5-8.749l8.5,8.749V14h4.871C77.321,14,79,15.93,79,18.38V67H31.124
		c-2.45,0-4.375,1.55-4.375,4s1.925,4,4.375,4H79v9H31.124C23.862,84,18,78.138,18,70.876V22.754l0.263-1.662
		c0.7-3.412,3.412-6.126,6.824-6.827L26.749,14H53z"/>
</g>
</svg>
